<?xml version="1.0" encoding="utf-8"?>
<!-- Generator: Adobe Illustrator 23.0.1, SVG Export Plug-In . SVG Version: 6.00 Build 0)  -->
<svg version="1.1" id="レイヤー_1" xmlns="http://www.w3.org/2000/svg" xmlns:xlink="http://www.w3.org/1999/xlink" x="0px"
	 y="0px" viewBox="0 0 235 191" style="enable-background:new 0 0 235 191;" xml:space="preserve">
<title>twitter</title>
<g>
	<g id="Logo_FIXED">
		<path d="M73.9,191c88.7,0,137.2-73.5,137.2-137.2c0-2.1,0-4.2-0.1-6.2c9.4-6.8,17.6-15.3,24.1-25c-8.8,3.9-18.1,6.5-27.7,7.6
			c10.1-6,17.6-15.5,21.2-26.7c-9.5,5.6-19.8,9.6-30.6,11.7C179.7-4.2,149.1-5.2,129.7,13c-12.6,11.8-17.9,29.4-14,46.2
			C77,57.3,40.8,39,16.4,8.8C3.6,30.9,10.1,59,31.3,73.2c-7.7-0.2-15.1-2.3-21.8-6c0,0.2,0,0.4,0,0.6c0,23,16.2,42.7,38.7,47.3
			c-7.1,1.9-14.6,2.2-21.8,0.8c6.3,19.6,24.4,33.1,45,33.5C54.3,162.8,33.2,170,11.5,170c-3.8,0-7.7-0.2-11.5-0.7
			C22,183.5,47.7,191,73.9,191"/>
	</g>
</g>
</svg>
