<svg xmlns="http://www.w3.org/2000/svg" viewBox="0 0 650 650"><defs><style>.cls-1{fill:#1d105b;}.cls-2{fill:#fff;}.cls-3{fill:#d81e00;}</style></defs><g id="レイヤー_2" data-name="レイヤー 2"><g id="レイヤー_1-2" data-name="レイヤー 1"><rect class="cls-1" width="650" height="650"/><polygon class="cls-2" points="252.81 325 0 577.81 0 650 65.69 650 325 390.69 325 325 252.81 325"/><polygon class="cls-3" points="325 322.13 0 647.13 0 650 31.61 650 325 356.61 325 322.13"/><polygon class="cls-2" points="325 252.81 72.19 0 0 0 0 65.69 259.31 325 325 325 325 252.81"/><polygon class="cls-3" points="327.87 325 2.87 0 0 0 0 31.61 293.39 325 327.87 325"/><polygon class="cls-2" points="397.19 325 650 72.19 650 0 584.31 0 325 259.31 325 325 397.19 325"/><polygon class="cls-3" points="325 327.87 650 2.87 650 0 618.39 0 325 293.39 325 327.87"/><polygon class="cls-2" points="325 397.19 577.81 650 650 650 650 584.31 390.69 325 325 325 325 397.19"/><polygon class="cls-3" points="322.13 325 647.13 650 650 650 650 618.39 356.61 325 322.13 325"/><rect class="cls-2" x="246.46" width="157.08" height="650"/><rect class="cls-2" x="246.46" width="157.08" height="650" transform="translate(650) rotate(90)"/><rect class="cls-3" x="276.79" width="96.42" height="650"/><rect class="cls-3" x="276.79" width="96.42" height="650" transform="translate(650) rotate(90)"/></g></g></svg>