<svg xmlns="http://www.w3.org/2000/svg" viewBox="0 0 650 650"><defs><style>.cls-1{fill:#e70029;}.cls-2{fill:#fff;}.cls-3{fill:#036;}</style></defs><g id="レイヤー_2" data-name="レイヤー 2"><g id="レイヤー_1-2" data-name="レイヤー 1"><rect class="cls-1" width="650" height="650"/><rect class="cls-2" y="50" width="650" height="50"/><rect class="cls-2" y="150" width="650" height="50"/><rect class="cls-2" y="250" width="650" height="50"/><rect class="cls-2" y="350" width="650" height="50"/><rect class="cls-2" y="450" width="650" height="50"/><rect class="cls-2" y="550" width="650" height="50"/><rect class="cls-3" width="350" height="350"/><polygon class="cls-2" points="39.55 20 44.16 34.2 59.1 34.2 47.02 42.98 51.63 57.18 39.55 48.41 27.47 57.18 32.08 42.98 20 34.2 34.93 34.2 39.55 20"/><polygon class="cls-2" points="175 20 179.62 34.2 194.55 34.2 182.47 42.98 187.08 57.18 175 48.41 162.92 57.18 167.53 42.98 155.45 34.2 170.38 34.2 175 20"/><polygon class="cls-2" points="242.73 20 247.34 34.2 262.27 34.2 250.19 42.98 254.81 57.18 242.73 48.41 230.64 57.18 235.26 42.98 223.18 34.2 238.11 34.2 242.73 20"/><polygon class="cls-2" points="107.27 20 111.89 34.2 126.82 34.2 114.74 42.98 119.36 57.18 107.27 48.41 95.19 57.18 99.81 42.98 87.73 34.2 102.66 34.2 107.27 20"/><polygon class="cls-2" points="310.45 20 315.07 34.2 330 34.2 317.92 42.98 322.53 57.18 310.45 48.41 298.37 57.18 302.98 42.98 290.9 34.2 305.84 34.2 310.45 20"/><polygon class="cls-2" points="73.41 56.8 78.03 71 92.96 71 80.88 79.78 85.49 93.98 73.41 85.2 61.33 93.98 65.94 79.78 53.86 71 68.8 71 73.41 56.8"/><polygon class="cls-2" points="208.86 56.8 213.48 71 228.41 71 216.33 79.78 220.94 93.98 208.86 85.2 196.78 93.98 201.4 79.78 189.31 71 204.25 71 208.86 56.8"/><polygon class="cls-2" points="276.59 56.8 281.2 71 296.14 71 284.06 79.78 288.67 93.98 276.59 85.2 264.51 93.98 269.12 79.78 257.04 71 271.97 71 276.59 56.8"/><polygon class="cls-2" points="141.14 56.8 145.75 71 160.69 71 148.6 79.78 153.22 93.98 141.14 85.2 129.06 93.98 133.67 79.78 121.59 71 136.52 71 141.14 56.8"/><polygon class="cls-2" points="175 88.2 179.62 102.41 194.55 102.41 182.47 111.19 187.08 125.39 175 116.61 162.92 125.39 167.53 111.19 155.45 102.41 170.38 102.41 175 88.2"/><polygon class="cls-2" points="242.73 88.2 247.34 102.41 262.27 102.41 250.19 111.19 254.81 125.39 242.73 116.61 230.64 125.39 235.26 111.19 223.18 102.41 238.11 102.41 242.73 88.2"/><polygon class="cls-2" points="107.27 88.2 111.89 102.41 126.82 102.41 114.74 111.19 119.36 125.39 107.27 116.61 95.19 125.39 99.81 111.19 87.73 102.41 102.66 102.41 107.27 88.2"/><polygon class="cls-2" points="310.45 88.2 315.07 102.41 330 102.41 317.92 111.19 322.53 125.39 310.45 116.61 298.37 125.39 302.98 111.19 290.9 102.41 305.84 102.41 310.45 88.2"/><polygon class="cls-2" points="175 156.41 179.62 170.61 194.55 170.61 182.47 179.39 187.08 193.59 175 184.81 162.92 193.59 167.53 179.39 155.45 170.61 170.38 170.61 175 156.41"/><polygon class="cls-2" points="242.73 156.41 247.34 170.61 262.27 170.61 250.19 179.39 254.81 193.59 242.73 184.81 230.64 193.59 235.26 179.39 223.18 170.61 238.11 170.61 242.73 156.41"/><polygon class="cls-2" points="107.27 156.41 111.89 170.61 126.82 170.61 114.74 179.39 119.36 193.59 107.27 184.81 95.19 193.59 99.81 179.39 87.73 170.61 102.66 170.61 107.27 156.41"/><polygon class="cls-2" points="310.45 156.41 315.07 170.61 330 170.61 317.92 179.39 322.53 193.59 310.45 184.81 298.37 193.59 302.98 179.39 290.9 170.61 305.84 170.61 310.45 156.41"/><polygon class="cls-2" points="175 224.61 179.62 238.81 194.55 238.81 182.47 247.59 187.08 261.8 175 253.02 162.92 261.8 167.53 247.59 155.45 238.81 170.38 238.81 175 224.61"/><polygon class="cls-2" points="242.73 224.61 247.34 238.81 262.27 238.81 250.19 247.59 254.81 261.8 242.73 253.02 230.64 261.8 235.26 247.59 223.18 238.81 238.11 238.81 242.73 224.61"/><polygon class="cls-2" points="107.27 224.61 111.89 238.81 126.82 238.81 114.74 247.59 119.36 261.8 107.27 253.02 95.19 261.8 99.81 247.59 87.73 238.81 102.66 238.81 107.27 224.61"/><polygon class="cls-2" points="310.45 224.61 315.07 238.81 330 238.81 317.92 247.59 322.53 261.8 310.45 253.02 298.37 261.8 302.98 247.59 290.9 238.81 305.84 238.81 310.45 224.61"/><polygon class="cls-2" points="175 292.82 179.62 307.02 194.55 307.02 182.47 315.8 187.08 330 175 321.22 162.92 330 167.53 315.8 155.45 307.02 170.38 307.02 175 292.82"/><polygon class="cls-2" points="242.73 292.82 247.34 307.02 262.27 307.02 250.19 315.8 254.81 330 242.73 321.22 230.64 330 235.26 315.8 223.18 307.02 238.11 307.02 242.73 292.82"/><polygon class="cls-2" points="107.27 292.82 111.89 307.02 126.82 307.02 114.74 315.8 119.36 330 107.27 321.22 95.19 330 99.81 315.8 87.73 307.02 102.66 307.02 107.27 292.82"/><polygon class="cls-2" points="310.45 292.82 315.07 307.02 330 307.02 317.92 315.8 322.53 330 310.45 321.22 298.37 330 302.98 315.8 290.9 307.02 305.84 307.02 310.45 292.82"/><polygon class="cls-2" points="39.55 156.41 44.16 170.61 59.1 170.61 47.02 179.39 51.63 193.59 39.55 184.81 27.47 193.59 32.08 179.39 20 170.61 34.93 170.61 39.55 156.41"/><polygon class="cls-2" points="39.55 88.2 44.16 102.41 59.1 102.41 47.02 111.19 51.63 125.39 39.55 116.61 27.47 125.39 32.08 111.19 20 102.41 34.93 102.41 39.55 88.2"/><polygon class="cls-2" points="39.55 224.61 44.16 238.81 59.1 238.81 47.02 247.59 51.63 261.8 39.55 253.02 27.47 261.8 32.08 247.59 20 238.81 34.93 238.81 39.55 224.61"/><polygon class="cls-2" points="39.55 292.82 44.16 307.02 59.1 307.02 47.02 315.8 51.63 330 39.55 321.22 27.47 330 32.08 315.8 20 307.02 34.93 307.02 39.55 292.82"/><polygon class="cls-2" points="73.41 122.31 78.03 136.51 92.96 136.51 80.88 145.29 85.49 159.49 73.41 150.71 61.33 159.49 65.94 145.29 53.86 136.51 68.8 136.51 73.41 122.31"/><polygon class="cls-2" points="73.41 190.51 78.03 204.71 92.96 204.71 80.88 213.49 85.49 227.69 73.41 218.92 61.33 227.69 65.94 213.49 53.86 204.71 68.8 204.71 73.41 190.51"/><polygon class="cls-2" points="73.41 258.71 78.03 272.92 92.96 272.92 80.88 281.69 85.49 295.9 73.41 287.12 61.33 295.9 65.94 281.69 53.86 272.92 68.8 272.92 73.41 258.71"/><polygon class="cls-2" points="141.41 122.31 146.03 136.51 160.96 136.51 148.88 145.29 153.49 159.49 141.41 150.71 129.33 159.49 133.94 145.29 121.86 136.51 136.8 136.51 141.41 122.31"/><polygon class="cls-2" points="141.41 190.51 146.03 204.71 160.96 204.71 148.88 213.49 153.49 227.69 141.41 218.92 129.33 227.69 133.94 213.49 121.86 204.71 136.8 204.71 141.41 190.51"/><polygon class="cls-2" points="141.41 258.71 146.03 272.92 160.96 272.92 148.88 281.69 153.49 295.9 141.41 287.12 129.33 295.9 133.94 281.69 121.86 272.92 136.8 272.92 141.41 258.71"/><polygon class="cls-2" points="208.41 122.31 213.03 136.51 227.96 136.51 215.88 145.29 220.49 159.49 208.41 150.71 196.33 159.49 200.94 145.29 188.86 136.51 203.8 136.51 208.41 122.31"/><polygon class="cls-2" points="208.41 190.51 213.03 204.71 227.96 204.71 215.88 213.49 220.49 227.69 208.41 218.92 196.33 227.69 200.94 213.49 188.86 204.71 203.8 204.71 208.41 190.51"/><polygon class="cls-2" points="208.41 258.71 213.03 272.92 227.96 272.92 215.88 281.69 220.49 295.9 208.41 287.12 196.33 295.9 200.94 281.69 188.86 272.92 203.8 272.92 208.41 258.71"/><polygon class="cls-2" points="276.41 122.31 281.03 136.51 295.96 136.51 283.88 145.29 288.49 159.49 276.41 150.71 264.33 159.49 268.94 145.29 256.86 136.51 271.8 136.51 276.41 122.31"/><polygon class="cls-2" points="276.41 190.51 281.03 204.71 295.96 204.71 283.88 213.49 288.49 227.69 276.41 218.92 264.33 227.69 268.94 213.49 256.86 204.71 271.8 204.71 276.41 190.51"/><polygon class="cls-2" points="276.41 258.71 281.03 272.92 295.96 272.92 283.88 281.69 288.49 295.9 276.41 287.12 264.33 295.9 268.94 281.69 256.86 272.92 271.8 272.92 276.41 258.71"/></g></g></svg>