<svg xmlns="http://www.w3.org/2000/svg" viewBox="0 0 1447.67 1344.27"><defs><style>.cls-1{fill:#231815;}</style></defs><g id="レイヤー_2" data-name="レイヤー 2"><g id="レイヤー_7" data-name="レイヤー 7"><path class="cls-1" d="M310.87,0H459.92V33.4H344.57V116H445.68v33.4H344.57V259.65h-33.7Z"/><path class="cls-1" d="M550.26,0H584V259.65h-33.7Z"/><path class="cls-1" d="M709,0l82.69,214.76-19.11-3.95L850.8,0h40L779.92,271.86,668.74,0Z"/><path class="cls-1" d="M968.64,0h163.3V33.4h-129.6v79H1118v33.76h-115.7v80.08h134.47v33.4H968.64Z"/><path class="cls-1" d="M0,802V534.05H.35L132,727.62l-14.24-3.23L249.47,534.05h.35V802h-33.7V613.06l2.43,17.59L124,769.28h-.69L27.1,630.65l5.56-16.16V802Z"/><path class="cls-1" d="M348.9,542.31h33.7V802H348.9Z"/><path class="cls-1" d="M697.42,810.22,503.19,606.59l9.73,2.52.7,192.85H479.91V534.41h1.74L673.44,738.75,665.8,737l-.69-194.65h33.7V810.22Z"/><path class="cls-1" d="M821.27,710q0,17.61,8.17,31.43a59.72,59.72,0,0,0,52.29,29.62q17.71,0,31.62-7.9a56.56,56.56,0,0,0,21.71-21.72q7.83-13.83,7.82-31.43V542.31h33.36V711.1q0,28.38-12.51,49.56a85.68,85.68,0,0,1-34.05,32.68q-21.55,11.5-47.95,11.49-26.06,0-47.6-11.49a85.61,85.61,0,0,1-34-32.68q-12.51-21.18-12.51-49.56V542.31h33.7Z"/><path class="cls-1" d="M1039.18,542.31h167.13v33.4H1138.9V802h-33.7V575.71h-66Z"/><path class="cls-1" d="M1279.51,542.31h163.3v33.4h-129.6v79h115.7v33.75h-115.7v80.09h134.46V802H1279.51Z"/><path class="cls-1" d="M141.48,1344.27V1084.62h68.45q37.51,0,63.58,11.67t42.22,31.24a126.14,126.14,0,0,1,23.45,42.92,157,157,0,0,1,7.29,47q0,29.46-9.9,52.8a118.37,118.37,0,0,1-66.71,65.18,128.52,128.52,0,0,1-47.43,8.8Zm33.7-33.4h40.65a109.23,109.23,0,0,0,38-6.47,89.45,89.45,0,0,0,30.58-18.67,84.38,84.38,0,0,0,20.32-30q7.31-17.77,7.3-40.76,0-23.7-7.65-41.84a86.38,86.38,0,0,0-20.84-30.35,91.1,91.1,0,0,0-29.88-18.49A97.78,97.78,0,0,0,219,1118H175.18Z"/><path class="cls-1" d="M436.13,1084.62h33.7v259.65h-33.7Z"/><path class="cls-1" d="M553.55,1344.27,663,1073.84h2.08l109.8,270.43H736.31l-82-215.84,24-16.16-91.38,232Zm64.28-98.4h93.46L722.41,1276H608.1Z"/><path class="cls-1" d="M923.58,1084.62a114.78,114.78,0,0,1,35.27,5.2A81.14,81.14,0,0,1,987,1105.27a71,71,0,0,1,18.76,25.31q6.78,15.09,6.78,34.48a106.28,106.28,0,0,1-4.34,30.17A75.24,75.24,0,0,1,993.94,1222q-9.9,12-26.06,19.4t-40.13,7.36H890.57v95.53h-33.7V1084.62ZM927.06,1215q14.93,0,24.84-4.67a40.55,40.55,0,0,0,15.46-12,48.57,48.57,0,0,0,8-15.62,57.12,57.12,0,0,0,2.44-16.16,53.47,53.47,0,0,0-2.61-16.16,49.78,49.78,0,0,0-8.34-15.63,43.76,43.76,0,0,0-14.94-12q-9.21-4.65-22.41-4.67H890.57v97Zm41.34,20.11,65.67,109.18H995.16l-67.06-108.1Z"/><path class="cls-1" d="M1178.68,1257.72l-93.12-173.1h41.35l74.7,143.29-10.42.72,74-144h41l-93.81,173.1v86.55h-33.7Z"/></g></g></svg>